M48
INCH,TZ
T1C0.024
T2C0.032
T3C0.040
T4C0.048
%
T1
X-04500Y-01000
X-03500Y-01000
X-02500Y-01000
X-01500Y-01000
X-00500Y-01000
X000500Y-01000
X001500Y-01000
X002500Y-01000
X003500Y-01000
X004500Y-01000
X004500Y002000
X003500Y002000
X002500Y002000
X001500Y002000
X000500Y002000
X-00500Y002000
X-01500Y002000
X-02500Y002000
X-03500Y002000
X-04500Y002000
X-09500Y-04500
X-07000Y-04500
X-04500Y-04500
X-02000Y-04500
X000500Y-04500
X003000Y-04500
X005500Y-04500
X008000Y-04500
X010500Y-04500
X-16000Y005500
X-10000Y005500
X-07500Y005500
X-16000Y003500
X-04000Y005500
X-01500Y005500
X-16000Y001500
X002000Y005500
X004500Y005500
X-16000Y-00500
X008000Y005500
X010500Y005500
X-12000Y-04500
X-17000Y-04500
X-12000Y009000
X-13000Y009000
X-12000Y007500
X-13000Y007500
X-02000Y014500
X-04000Y014500
X-03000Y015500
X-13000Y011500
X-13000Y015500
X025500Y-04500
X018000Y-04500
T2
X-11000Y013000
X-08000Y013000
T3
X-12500Y003500
X-12500Y004500
X-12500Y005500
X004000Y015500
X000000Y015500
X000000Y014000
X004000Y014000
X004000Y012500
X000000Y012500
X000000Y011000
X004000Y011000
X025550Y004250
X023050Y004250
X020550Y004250
X018050Y004250
X025550Y016250
X023050Y016250
X020550Y016250
X017800Y016250
T4
X015050Y-00250
X018100Y-00250
X025650Y-00250
X028700Y-00250
M30

